<svg width="270" height="270" viewBox="0 0 270 270" fill="none" xmlns="http://www.w3.org/2000/svg">
<path d="M261.562 189.158H140.273V44.8242C140.273 21.5156 159.152 2.63672 182.461 2.63672H219.375C242.684 2.63672 261.562 21.5156 261.562 44.8242V189.158Z" fill="#FFB20F"/>
<path d="M141.328 267.363H267.363V182.777C267.363 161.314 252.914 142.488 232.189 136.951L219.111 133.471H195.908L181.934 136.793C158.15 142.436 141.328 163.688 141.328 188.104V267.363Z" fill="#B2D34B"/>
<path d="M195.908 133.418L201.182 149.238L219.111 133.418V117.598H195.908V133.418Z" fill="#EF917B"/>
<path d="M128.672 267.363H2.63672V182.777C2.63672 161.314 17.0859 142.488 37.8105 136.951L50.8887 133.471H74.0918L88.0664 136.793C111.85 142.436 128.672 163.688 128.672 188.104V267.363Z" fill="#D84861"/>
<path d="M32.6953 189.316H27.4219V212.52H32.6953V189.316Z" fill="#C12944"/>
<path d="M74.0918 133.418C74.0918 143.438 61.2773 147.604 55.3711 139.535L50.8887 133.418V117.598H74.0918V133.418ZM68.5547 81.7383H20.5664C13.5527 81.7383 7.91016 76.0957 7.91016 69.082C7.91016 62.0684 13.5527 56.4258 20.5664 56.4258H68.5547V81.7383ZM68.5547 56.4258H116.543C123.557 56.4258 129.199 62.0684 129.199 69.082C129.199 76.0957 123.557 81.7383 116.543 81.7383H68.5547V56.4258Z" fill="#EF917B"/>
<path d="M68.5547 123.926C45.8262 123.926 27.4219 105.521 27.4219 82.793V18.457H109.688V82.793C109.688 105.521 91.2832 123.926 68.5547 123.926Z" fill="#F5B7A9"/>
<path d="M68.5547 13.6582C64.8105 6.85547 57.6914 2.63672 49.9394 2.63672C28.4766 2.63672 12.6035 22.623 17.5078 43.5586L20.5664 56.4258H35.9648C40.8164 56.4258 45.2461 53.5781 47.1973 49.1484L51.6797 39.1289C54.5801 32.6953 62.2265 30.0059 68.5547 33.1699C74.8301 29.9531 82.5293 32.6953 85.4297 39.1289L89.9121 49.1484C91.916 53.5781 96.293 56.4258 101.145 56.4258H116.543L119.549 43.5586C124.506 22.623 108.633 2.63672 87.1699 2.63672C79.418 2.63672 72.2988 6.85547 68.5547 13.6582Z" fill="#D6D280"/>
<path d="M200.918 123.926C178.189 123.926 159.785 105.521 159.785 82.793V18.457H242.051V82.793C242.051 105.521 223.646 123.926 200.918 123.926Z" fill="#F5B7A9"/>
<path d="M190.371 60.1172H177.715V65.3906H190.371V60.1172Z" fill="#399349"/>
<path d="M193.008 80.6836H187.734V73.3008H184.043V68.0273H190.371C191.848 68.0273 193.008 69.1875 193.008 70.6641V80.6836Z" fill="#399349"/>
<path d="M224.121 60.1172H211.465V65.3906H224.121V60.1172Z" fill="#399349"/>
<path d="M214.102 80.6836H208.828V70.6641C208.828 69.1875 209.988 68.0273 211.465 68.0273H217.793V73.3008H214.102V80.6836Z" fill="#399349"/>
<path d="M201.076 99.1406C200.496 99.1406 199.916 98.9297 199.389 98.5605L192.902 93.2871L196.225 89.1738L201.023 93.0762L205.506 89.2266L208.934 93.2344L202.764 98.5078C202.289 98.9297 201.709 99.1406 201.076 99.1406Z" fill="#D84861"/>
<path d="M242.578 189.316H237.305V267.363H242.578V189.316Z" fill="#9ABD2E"/>
<path d="M58.0078 60.1172H45.3516V65.3906H58.0078V60.1172Z" fill="#399349"/>
<path d="M60.6445 70.6641H55.3711V80.6836H60.6445V70.6641Z" fill="#399349"/>
<path d="M91.7578 60.1172H79.1016V65.3906H91.7578V60.1172Z" fill="#399349"/>
<path d="M81.7383 70.6641H76.4648V80.6836H81.7383V70.6641Z" fill="#399349"/>
<path d="M68.5547 98.2441C64.0723 98.2441 59.5898 96.5566 56.1621 93.1289L59.9062 89.3848C64.7051 94.1836 72.5098 94.1836 77.2559 89.3848L81 93.1289C77.5195 96.5039 73.0371 98.2441 68.5547 98.2441Z" fill="#EF917B"/>
<path d="M140.273 44.8242V100.723H159.785V56.4258H164.848C180.404 56.4258 194.484 47.3555 200.918 33.2227C207.352 47.3555 221.432 56.4258 236.988 56.4258H242.051V81.2109C242.051 91.9688 250.805 100.723 261.562 100.723V44.8242C261.562 21.5156 242.684 2.63672 219.375 2.63672H182.461C159.152 2.63672 140.273 21.5156 140.273 44.8242Z" fill="#FFCB5C"/>
<path d="M30.0586 212.52H2.63672V267.363H30.0586V212.52Z" fill="#F5B7A9"/>
<path d="M30.0586 212.52H2.63672V228.34H30.0586V212.52Z" fill="#EF917B"/>
<path d="M135 155.566H93.2344C87.1699 155.566 82.2656 150.662 82.2656 144.598V144.439C82.2656 138.375 87.1699 133.471 93.2344 133.471H135V155.566ZM135 133.418H176.766C182.83 133.418 187.734 138.322 187.734 144.387V144.545C187.734 150.609 182.83 155.514 176.766 155.514H135V133.418Z" fill="#EF917B"/>
<path d="M179.297 267.363H90.7031V230.344C90.7031 218.795 98.1914 208.617 109.213 205.189L124.453 200.443H145.547L160.787 205.189C171.809 208.617 179.297 218.848 179.297 230.344V267.363Z" fill="#FFCB5C"/>
<path d="M145.547 185.625H124.453V200.391L117.07 202.711C127.828 210.199 142.172 210.199 152.93 202.711L145.547 200.391V185.625Z" fill="#EF917B"/>
<path d="M135 192.48C115.172 192.48 99.1406 176.449 99.1406 156.621V100.723H170.859V156.621C170.859 176.449 154.828 192.48 135 192.48Z" fill="#F5B7A9"/>
<path d="M128.672 146.074H123.398V155.039H128.672V146.074Z" fill="#399349"/>
<path d="M146.602 146.074H141.328V155.039H146.602V146.074Z" fill="#399349"/>
<path d="M135 170.807C130.781 170.807 126.773 168.961 124.031 165.744L128.039 162.316C129.779 164.373 132.311 165.533 135 165.533C137.689 165.533 140.221 164.373 141.961 162.316L145.969 165.744C143.227 168.961 139.219 170.807 135 170.807Z" fill="#EF917B"/>
<path d="M106.523 251.543H90.7031V267.363H106.523V251.543Z" fill="#F5B7A9"/>
<path d="M179.297 251.543H163.477V267.363H179.297V251.543Z" fill="#F5B7A9"/>
<path d="M109.16 235.723H103.887V251.543H109.16V235.723Z" fill="#FFB20F"/>
<path d="M166.113 235.723H160.84V251.543H166.113V235.723Z" fill="#FFB20F"/>
<path d="M93.2344 133.418L91.4414 125.93C86.7481 106.049 101.83 87.0117 122.238 87.0117H147.709C168.117 87.0117 183.199 106.049 178.506 125.93L176.713 133.418H165.797C160.102 133.418 155.514 128.83 155.514 123.135C155.514 128.83 150.926 133.418 145.23 133.418C139.535 133.418 134.947 128.83 134.947 123.135C134.947 128.83 130.359 133.418 124.664 133.418C118.969 133.418 114.381 128.83 114.381 123.135C114.381 128.83 109.793 133.418 104.098 133.418H93.2344Z" fill="#399349"/>
<path d="M115.488 164.004C118.692 164.004 121.289 161.997 121.289 159.521C121.289 157.046 118.692 155.039 115.488 155.039C112.285 155.039 109.688 157.046 109.688 159.521C109.688 161.997 112.285 164.004 115.488 164.004Z" fill="#EF917B"/>
<path d="M154.512 164.004C157.715 164.004 160.312 161.997 160.312 159.521C160.312 157.046 157.715 155.039 154.512 155.039C151.308 155.039 148.711 157.046 148.711 159.521C148.711 161.997 151.308 164.004 154.512 164.004Z" fill="#EF917B"/>
<path d="M179.35 118.23C179.297 114.592 178.664 111.111 177.451 107.842C176.871 108.053 176.186 108.158 175.395 108.158C172.705 108.158 171.492 107.051 169.119 104.52C166.324 101.619 162.527 97.6113 155.197 97.6113C147.867 97.6113 144.07 101.619 141.275 104.52C138.85 107.051 137.689 108.158 135 108.158C132.311 108.158 131.15 107.051 128.725 104.52C125.93 101.619 122.133 97.6113 114.803 97.6113C107.473 97.6113 103.676 101.619 100.881 104.52C98.4551 107.051 97.2949 108.158 94.6055 108.158C93.8144 108.158 93.1816 108.053 92.6016 107.842C91.3887 111.111 90.7559 114.645 90.7031 118.23C91.916 118.494 93.1816 118.652 94.6582 118.652C101.988 118.652 105.785 114.645 108.58 111.744C111.006 109.213 112.166 108.105 114.855 108.105C117.545 108.105 118.705 109.213 121.131 111.744C123.926 114.645 127.723 118.652 135.053 118.652C142.383 118.652 146.18 114.645 148.975 111.744C151.4 109.213 152.561 108.105 155.25 108.105C157.939 108.105 159.1 109.213 161.525 111.744C164.32 114.645 168.117 118.652 175.447 118.652C176.871 118.652 178.189 118.494 179.35 118.23Z" fill="#47B85B"/>
<path d="M78.6269 4.42969C74.4082 6.27539 70.8222 9.49219 68.5547 13.6055C66.2343 9.43945 62.7011 6.27539 58.4824 4.42969L54.6855 8.5957C52.8925 10.5469 53.3144 13.6582 55.5293 15.082L58.6933 17.1914C60.9082 18.668 61.2773 21.7266 59.5371 23.6777L57.0058 26.4727C55.2129 28.4238 55.6347 31.5352 57.8496 32.959C61.1718 31.4297 65.1269 31.377 68.6074 33.1699C72.0879 31.377 76.0429 31.4297 79.3652 32.959L79.4179 32.9062C81.6328 31.4297 82.0019 28.3711 80.2617 26.4199L77.6777 23.5723C75.8847 21.6211 76.3066 18.5098 78.5215 17.0859L81.6328 15.082C83.8476 13.6582 84.2695 10.5469 82.4765 8.54297L78.6269 4.42969Z" fill="#BAB66F"/>
<path d="M212.361 16.1367C215.42 14.1855 215.947 9.91406 213.522 7.22461L209.355 2.63672H192.48L188.262 7.22461C185.836 9.91406 186.363 14.1328 189.369 16.084L189.475 16.1367C192.48 18.1406 193.008 22.3594 190.582 24.9961L190.529 25.0488C188.104 27.7383 188.631 31.957 191.637 33.9082L197.49 37.7578L197.648 38.918C198.861 37.125 199.969 35.1738 200.865 33.1172C201.814 35.1738 202.869 37.0723 204.082 38.918L204.24 37.7578L210.094 33.9082C213.1 31.9043 213.627 27.7383 211.201 25.0488L211.096 24.9434C208.775 22.3066 209.356 18.0879 212.361 16.1367Z" fill="#FFB20F"/>
</svg>
