<svg width="400" height="400" viewBox="0 0 400 400" fill="none" xmlns="http://www.w3.org/2000/svg">
<path d="M346.344 343.957H53.38V207.576H113.994L199.862 121.708L285.732 207.576H346.344V343.957Z" fill="#FCD2B1"/>
<path d="M169.556 283.343H230.169V343.956H169.556V283.343Z" fill="#2A94F4"/>
<path d="M247.289 81.299L255.521 68.948C256.028 68.1873 256.319 67.3035 256.363 66.3906C256.407 65.4778 256.203 64.57 255.772 63.764C255.341 62.9575 254.699 62.2832 253.915 61.8131C253.131 61.3431 252.233 61.0948 251.319 61.095H200.808C200.145 61.0946 199.488 61.225 198.875 61.4787C198.262 61.7323 197.705 62.1044 197.236 62.5735C196.766 63.0426 196.394 63.5996 196.141 64.2126C195.887 64.8256 195.757 65.4826 195.757 66.146V96.453C195.757 97.1164 195.887 97.7734 196.141 98.3864C196.394 98.9994 196.766 99.5563 197.236 100.025C197.705 100.495 198.262 100.867 198.875 101.12C199.488 101.374 200.145 101.504 200.808 101.504H251.319C252.233 101.504 253.131 101.257 253.915 100.787C254.7 100.317 255.342 99.6432 255.774 98.8369C256.205 98.0307 256.41 97.1225 256.365 96.2091C256.321 95.2958 256.03 94.4116 255.522 93.651L247.289 81.299Z" fill="#FFBE55"/>
<path d="M200 126.759C199.336 126.76 198.679 126.629 198.066 126.376C197.453 126.122 196.896 125.75 196.427 125.281C195.958 124.812 195.586 124.255 195.332 123.642C195.078 123.029 194.948 122.372 194.948 121.708V56.044C194.948 53.252 197.208 50.993 200 50.993C202.792 50.993 205.052 53.252 205.052 56.044V121.708C205.052 122.372 204.922 123.029 204.668 123.642C204.414 124.255 204.042 124.811 203.573 125.281C203.104 125.75 202.547 126.122 201.934 126.375C201.32 126.629 200.663 126.759 200 126.759Z" fill="#0E538C"/>
<path d="M275.628 240.409C275.628 233.434 269.976 227.782 263.001 227.782C256.026 227.782 250.373 233.435 250.373 240.409C250.373 241.274 250.462 242.118 250.627 242.934H250.373V263.139H275.628V242.934H275.373C275.54 242.118 275.628 241.273 275.628 240.409ZM124.234 288.394H149.49V318.701H124.234V288.394ZM78.636 288.394H103.892V318.701H78.636V288.394ZM295.971 288.394H321.227V318.701H295.971V288.394ZM250.374 288.394H275.629V318.701H250.374V288.394ZM320.95 240.409C320.95 233.434 315.297 227.782 308.322 227.782C301.348 227.782 295.694 233.435 295.694 240.409C295.694 241.274 295.783 242.118 295.949 242.934H295.694V263.139H320.95V242.934H320.696C320.861 242.118 320.95 241.273 320.95 240.409ZM103.753 240.409C103.753 233.434 98.1 227.782 91.126 227.782C84.151 227.782 78.498 233.435 78.498 240.409C78.498 241.274 78.587 242.118 78.752 242.934H78.498V263.139H103.753V242.934H103.499C103.664 242.118 103.753 241.273 103.753 240.409ZM149.074 240.409C149.074 233.434 143.422 227.782 136.447 227.782C129.472 227.782 123.819 233.435 123.819 240.409C123.819 241.274 123.908 242.118 124.074 242.934H123.819V263.139H149.074V242.934H148.821C148.986 242.118 149.074 241.273 149.074 240.409Z" fill="#F7F7F7"/>
<path d="M356.584 349.007H43.416C42.7526 349.007 42.0956 348.877 41.4826 348.623C40.8696 348.37 40.3126 347.998 39.8435 347.529C39.3744 347.059 39.0024 346.502 38.7487 345.889C38.495 345.276 38.3646 344.619 38.365 343.956C38.3646 343.293 38.495 342.636 38.7487 342.023C39.0023 341.409 39.3744 340.852 39.8435 340.383C40.3125 339.914 40.8695 339.542 41.4825 339.288C42.0955 339.034 42.7525 338.904 43.416 338.904H356.584C357.248 338.904 357.905 339.034 358.518 339.288C359.131 339.542 359.688 339.914 360.157 340.383C360.626 340.852 360.998 341.409 361.252 342.022C361.505 342.635 361.636 343.293 361.635 343.956C361.636 344.62 361.505 345.277 361.252 345.89C360.998 346.503 360.626 347.06 360.157 347.529C359.688 347.998 359.131 348.37 358.518 348.624C357.904 348.877 357.247 349.008 356.584 349.007Z" fill="#0E538C"/>
<path d="M171.249 157.598L122.751 206.097C122.283 206.566 121.728 206.938 121.116 207.191C120.505 207.445 119.849 207.576 119.187 207.576H43.42C42.5136 207.577 41.6235 207.335 40.8429 206.874C40.0623 206.413 39.4199 205.751 38.983 204.957C38.5504 204.162 38.3381 203.265 38.3679 202.36C38.3978 201.456 38.6689 200.575 39.153 199.81L66.016 157.599L171.249 157.598ZM360.88 204.956C360.444 205.749 359.802 206.411 359.023 206.871C358.244 207.332 357.355 207.575 356.45 207.575H280.684C280.021 207.576 279.363 207.446 278.75 207.192C278.137 206.938 277.581 206.566 277.112 206.096L228.613 157.597H333.845L360.709 199.808C361.195 200.572 361.467 201.453 361.498 202.359C361.528 203.264 361.314 204.161 360.88 204.956Z" fill="#2A94F4"/>
<path d="M285.8 212.559C285.137 212.56 284.48 212.43 283.867 212.176C283.254 211.922 282.697 211.55 282.229 211.08L200 128.851L117.772 211.08C117.303 211.549 116.746 211.921 116.133 212.175C115.52 212.429 114.863 212.56 114.2 212.56C113.537 212.56 112.88 212.429 112.267 212.175C111.654 211.921 111.097 211.549 110.628 211.08C110.159 210.611 109.787 210.054 109.533 209.441C109.279 208.828 109.148 208.171 109.148 207.508C109.148 206.845 109.279 206.188 109.533 205.575C109.787 204.962 110.159 204.405 110.628 203.936L196.428 118.136C196.897 117.667 197.454 117.295 198.067 117.041C198.68 116.787 199.337 116.656 200 116.656C200.663 116.656 201.32 116.787 201.933 117.041C202.546 117.295 203.103 117.667 203.572 118.136L289.371 203.936C290.078 204.642 290.56 205.542 290.755 206.522C290.95 207.502 290.85 208.518 290.468 209.441C290.086 210.364 289.438 211.154 288.607 211.708C287.776 212.263 286.799 212.56 285.8 212.559Z" fill="#0E538C"/>
<path d="M199.862 227.781C209.869 227.781 217.982 219.668 217.982 209.661C217.982 199.654 209.869 191.541 199.862 191.541C189.855 191.541 181.742 199.654 181.742 209.661C181.742 219.668 189.855 227.781 199.862 227.781Z" fill="#F7F7F7"/>
</svg>
