<svg width="250" height="250" viewBox="0 0 250 250" fill="none" xmlns="http://www.w3.org/2000/svg">
<path d="M192.86 93.3369C192.858 92.8045 192.744 92.2785 192.525 91.7931C192.307 91.3077 191.989 90.8737 191.591 90.5194C191.192 90.1668 190.723 89.9022 190.214 89.7427C189.706 89.5833 189.17 89.5325 188.641 89.5938L60.3706 104.697C59.4523 104.806 58.6057 105.247 57.9914 105.938C57.3771 106.63 57.0377 107.522 57.0375 108.447V142.428C57.0375 157.33 99.7575 161.308 125 161.308C150.241 161.308 192.962 157.33 192.962 142.428V142.421L192.86 93.3369Z" fill="#2B526B"/>
<path d="M192.86 104.671H124.896V161.306L125 161.307C149.582 161.307 190.722 157.531 192.86 143.571V104.671Z" fill="#2B526B"/>
<path d="M237.541 72.4894L140.918 39.3606C130.652 35.8394 119.347 35.8394 109.082 39.3606L12.4619 72.4894C7.8131 74.0819 4.8031 78.2869 4.8031 83.2044C4.8031 88.1194 7.81248 92.325 12.4619 93.9175L109.082 127.045C114.207 128.797 119.585 129.689 125.001 129.686C130.416 129.69 135.794 128.797 140.918 127.045L237.542 93.9175C242.192 92.325 245.197 88.12 245.197 83.2044C245.196 78.2869 242.191 74.0819 237.541 72.4894Z" fill="#046BC0"/>
<path d="M196.635 165.083C196.139 165.083 195.648 164.985 195.19 164.795C194.732 164.606 194.316 164.327 193.965 163.977C193.615 163.626 193.337 163.21 193.147 162.752C192.957 162.294 192.86 161.803 192.86 161.307V111.972C192.86 111.185 192.614 110.417 192.157 109.777C191.699 109.136 191.053 108.654 190.309 108.399L123.673 85.5531C122.725 85.228 121.946 84.5403 121.506 83.641C121.065 82.7418 120.999 81.7045 121.323 80.7569C122.002 78.7844 124.144 77.7288 126.121 78.4106L192.756 101.258C194.99 102.023 196.928 103.467 198.301 105.388C199.673 107.309 200.411 109.611 200.411 111.973V161.308C200.411 161.803 200.314 162.294 200.124 162.752C199.934 163.211 199.656 163.627 199.305 163.977C198.954 164.328 198.538 164.606 198.08 164.796C197.622 164.985 197.131 165.083 196.635 165.083Z" fill="#2A94F4"/>
<path d="M200.411 191.513H192.86C192.364 191.513 191.873 191.416 191.415 191.226C190.957 191.036 190.54 190.758 190.19 190.407C189.839 190.057 189.561 189.64 189.371 189.182C189.182 188.724 189.084 188.233 189.084 187.737V165.082C189.084 160.912 192.464 157.531 196.635 157.531C200.807 157.531 204.186 160.912 204.186 165.082V187.737C204.186 188.233 204.089 188.724 203.899 189.182C203.71 189.64 203.432 190.056 203.081 190.407C202.73 190.758 202.314 191.036 201.856 191.226C201.398 191.415 200.907 191.513 200.411 191.513Z" fill="#85560B"/>
<path d="M192.86 134.074C192.886 134.058 192.919 134.043 192.945 134.027L192.923 123.692C192.919 123.751 192.87 123.818 192.86 123.876V134.074Z" fill="#5C546A"/>
<path d="M125 89.5681C133.341 89.5681 140.103 86.1873 140.103 82.0169C140.103 77.8464 133.341 74.4656 125 74.4656C116.659 74.4656 109.898 77.8464 109.898 82.0169C109.898 86.1873 116.659 89.5681 125 89.5681Z" fill="#D3D3D3"/>
</svg>
