<svg width="250" height="250" viewBox="0 0 250 250" fill="none" xmlns="http://www.w3.org/2000/svg">
<path d="M246.528 125C246.528 192.009 192.266 246.528 125 246.528C57.7211 246.528 3.47217 191.998 3.47217 125C3.47217 57.8819 57.8815 3.47222 125 3.47222C192.118 3.47222 246.528 57.8819 246.528 125Z" fill="#2A96AE"/>
<mask id="mask0_39_170" style="mask-type:luminance" maskUnits="userSpaceOnUse" x="3" y="3" width="244" height="244">
<path d="M246.528 125C246.528 192.009 192.266 246.528 125 246.528C57.7211 246.528 3.47217 191.998 3.47217 125C3.47217 57.8819 57.8815 3.47222 125 3.47222C192.118 3.47222 246.528 57.8819 246.528 125Z" fill="white"/>
</mask>
<g mask="url(#mask0_39_170)">
<path d="M111.477 57.4958C111.477 57.4958 73.1582 66.1764 72.3527 66.3934C71.5471 66.6104 76.3645 108.711 76.3645 108.711L124.127 87.8344L111.477 57.4958Z" fill="#FAB687"/>
<path d="M235.125 246.91H14.2996C14.2996 215.093 35.9933 187.511 66.6739 179.867C67.2593 179.694 67.8791 179.557 68.4989 179.419C69.9107 179.109 71.3225 178.799 72.7687 178.489C74.6968 178.11 76.5909 177.766 78.519 177.422C79.9652 177.147 81.4117 176.906 82.8579 176.665C82.9954 176.63 83.1676 176.63 83.3055 176.595C97.0447 174.392 110.853 173.29 124.695 173.29C138.572 173.29 152.38 174.392 166.119 176.595C166.257 176.63 166.429 176.63 166.567 176.665C167.634 176.837 168.667 177.009 169.734 177.215C172.042 177.628 174.349 178.042 176.655 178.524C178.067 178.8 179.479 179.109 180.891 179.419H180.925C181.545 179.557 182.165 179.695 182.75 179.867C213.431 187.511 235.125 215.093 235.125 246.91Z" fill="#445A6B"/>
<path d="M166.567 176.664C152.69 174.426 138.71 173.29 124.695 173.29C110.715 173.29 96.7343 174.426 82.8579 176.664C81.4117 176.906 79.9652 177.147 78.519 177.422C85.027 189.956 93.6357 201.457 102.348 212.235C103.14 213.217 103.935 214.156 104.728 215.115C109.043 216.917 112.901 219.795 116.415 222.845C118.277 224.46 120.01 226.216 121.807 227.902C122.687 228.728 123.604 229.506 124.493 230.32C122.914 228.874 123.609 229.595 124.721 230.353C131.413 225.506 137.871 220.269 144.288 214.749C156.512 204.212 166.36 192.917 169.735 177.215C168.667 177.009 167.634 176.836 166.567 176.664Z" fill="#FAB687"/>
<path d="M176.656 178.524C163.605 205.624 146.905 224.08 126.933 233.515L124.729 234.548L122.526 233.515C102.52 224.081 85.7846 205.589 72.7687 178.49C74.6968 178.111 76.5909 177.767 78.519 177.422C79.9652 177.147 81.4117 176.906 82.8579 176.665C82.9954 176.631 83.1676 176.631 83.3055 176.596C94.5996 199.081 108.511 214.68 124.729 223.082C140.913 214.68 154.825 199.081 166.119 176.596C166.257 176.63 166.429 176.63 166.567 176.665C167.634 176.837 168.667 177.009 169.734 177.216C172.042 177.628 174.349 178.042 176.656 178.524Z" fill="#D2DBE0"/>
<path d="M146.277 141.384V172.426C146.277 185.097 136.912 195.365 125.354 195.365H124.07C112.513 195.365 103.147 185.097 103.147 172.426V141.384H146.277Z" fill="#FAB687"/>
<path d="M124.795 170.281C113.773 170.281 104.361 163.648 103.393 154.897C103.23 153.421 103.147 151.931 103.147 150.431C103.147 148.941 103.228 147.463 103.389 145.999C104.349 137.247 113.767 130.614 124.79 130.614H124.795C136.659 130.614 146.277 138.281 146.277 147.737V153.158C146.277 162.615 136.659 170.281 124.795 170.281Z" fill="#E59865"/>
<path d="M124.712 35.5767C45.5055 78.3292 79.6899 64.6278 79.6899 100.464C79.6899 136.301 99.8471 165.352 124.712 165.352C149.577 165.352 169.735 136.301 169.735 100.464C169.735 64.6278 146.593 23.766 124.712 35.5767Z" fill="#FAB687"/>
<path d="M174.761 71.2149C173.268 81.3538 167.434 111.563 167.434 111.563V92.3611C167.434 86.3889 166.323 80.417 163.65 75.1042C162.504 72.7778 161.184 70.7292 159.761 69.0625C156.775 65.5208 153.302 63.4719 149.587 63.4719C147.24 63.4719 144.998 64.2806 142.912 65.7476C140.678 67.3191 138.36 68.7812 135.865 69.8934C127.671 73.5472 118.18 73.417 110.295 69.1361C109.405 68.6531 108.725 68.2115 108.372 67.8469C105.663 65.0347 102.538 63.4719 99.2398 63.4719C95.4898 63.4719 92.0176 65.5208 89.0662 69.0625C83.2676 75.9375 79.4134 88.4375 79.4134 102.743C79.4134 106.319 79.6218 104.028 80.1079 107.292C80.5593 108.715 81.0103 110.174 81.5315 111.563C56.5315 65.6601 75.8718 45.2778 88.7537 50.2781C88.7537 37.4306 102.191 26.6319 118.788 27.0139C135.872 27.4306 177.261 53.9927 174.761 71.2149Z" fill="#663430"/>
<path d="M101.806 114.542C105.161 114.542 107.882 111.821 107.882 108.465C107.882 105.109 105.161 102.389 101.806 102.389C98.4496 102.389 95.7291 105.109 95.7291 108.465C95.7291 111.821 98.4496 114.542 101.806 114.542Z" fill="#3D2F46"/>
<path d="M144.594 114.542C147.949 114.542 150.67 111.821 150.67 108.465C150.67 105.109 147.949 102.389 144.594 102.389C141.238 102.389 138.517 105.109 138.517 108.465C138.517 111.821 141.238 114.542 144.594 114.542Z" fill="#3D2F46"/>
<path d="M168.774 122.608C174.566 122.608 179.26 116.546 179.26 109.069C179.26 101.593 174.566 95.5313 168.774 95.5313C162.983 95.5313 158.288 101.593 158.288 109.069C158.288 116.546 162.983 122.608 168.774 122.608Z" fill="#FAB687"/>
<path d="M78.1076 122.608C83.8989 122.608 88.5937 116.546 88.5937 109.069C88.5937 101.593 83.8989 95.5313 78.1076 95.5313C72.3163 95.5313 67.6215 101.593 67.6215 109.069C67.6215 116.546 72.3163 122.608 78.1076 122.608Z" fill="#FAB687"/>
<path d="M120.039 100.902C119.865 99.9649 119.448 99.0622 118.893 98.2288C118.789 98.0899 118.685 97.9511 118.546 97.8122L118.511 97.7778C117.157 96.1108 115.108 95.1389 112.921 95.1389H86.4971C86.0457 95.1389 85.629 95.2427 85.2471 95.4167C84.7957 95.5899 84.379 95.9028 84.0665 96.3191C83.7887 96.6667 83.5804 97.0833 83.511 97.5C83.3721 97.9861 83.3721 98.4722 83.4762 98.958L86.7401 112.152C88.129 117.882 93.1985 121.875 99.1012 121.875H104.622C109.969 121.875 114.796 118.472 116.636 113.472L119.761 104.93C120.247 103.611 120.316 102.222 120.039 100.902ZM117.122 103.958L113.997 112.5C112.573 116.423 108.823 119.062 104.622 119.062H99.1012C94.5179 119.062 90.5596 115.938 89.4484 111.493L86.2887 98.5764L86.2193 98.2983L86.4971 97.9163H112.921C114.414 97.9163 115.733 98.6111 116.601 99.8257C117.435 101.076 117.643 102.569 117.122 103.958ZM162.33 96.3191C162.087 96.0073 161.775 95.7292 161.428 95.5552C160.976 95.2774 160.455 95.1389 159.9 95.1389H133.476C131.289 95.1389 129.31 96.076 127.955 97.6736L127.921 97.7083C127.782 97.8816 127.643 98.0552 127.504 98.2288C126.914 99.0274 126.532 99.8955 126.358 100.868V100.902C126.046 102.222 126.149 103.611 126.636 104.93L129.761 113.472C131.567 118.472 136.393 121.875 141.74 121.875H147.296C153.164 121.875 158.268 117.882 159.657 112.152L162.921 98.958C162.99 98.5764 163.025 98.1941 162.955 97.8122C162.886 97.2913 162.677 96.7708 162.33 96.3191ZM156.948 111.493C155.837 115.938 151.879 119.062 147.296 119.062H141.74C137.573 119.062 133.823 116.423 132.365 112.5L129.24 103.958C128.754 102.569 128.928 101.076 129.796 99.8604C130.629 98.6108 131.983 97.9163 133.476 97.9163H159.9L160.178 98.2983L156.948 111.493Z" fill="#0F1619"/>
<path d="M127.522 97.4267C126.235 96.6563 124.636 96.2788 123.103 96.3604C121.565 96.4208 120.093 96.8708 118.849 97.5858C118.296 97.9014 117.806 98.2684 117.338 98.6628C117.83 99.5497 118.156 100.524 118.356 101.53C119.011 101.253 119.672 100.991 120.299 100.792C121.31 100.486 122.282 100.3 123.22 100.291C124.776 100.237 126.249 100.739 127.93 101.508C128.11 100.445 128.461 99.4205 128.963 98.4792C128.533 98.0802 128.065 97.7129 127.522 97.4267ZM167.434 92.0135V95.6594C165.802 96.0417 164.136 96.8056 162.955 97.8122C162.469 98.2635 161.983 98.7496 161.566 99.2705C161.045 99.0969 160.629 98.7497 160.386 98.2288C159.969 97.326 160.316 96.25 161.15 95.7288L161.427 95.5552L167.434 92.0135ZM86.6013 97.9167C86.5665 98.1247 86.4624 98.2986 86.3582 98.5069C86.3582 98.5417 86.3235 98.5764 86.2888 98.5764C86.0457 98.9233 85.6985 99.1663 85.3165 99.2708C84.761 98.6115 84.1707 98.0208 83.511 97.5C82.3652 96.6319 80.8721 95.9028 79.4485 95.625C79.4485 94.3403 79.5179 93.0556 79.5874 91.8056L85.2471 95.4167L85.7332 95.7292C86.4967 96.2153 86.8096 97.0833 86.6013 97.9167Z" fill="#0F1619"/>
<path d="M138.531 142.406C137.663 147.232 134.503 151.26 130.197 153.274C128.253 154.246 126.066 154.767 123.739 154.767C119.781 154.767 116.204 153.274 113.531 150.774C111.135 148.621 109.503 145.67 108.878 142.406C108.635 141.017 109.746 139.732 111.135 139.732H136.274C137.663 139.732 138.774 141.017 138.531 142.406Z" fill="#663430"/>
<path d="M130.197 153.274C128.253 154.246 126.065 154.767 123.739 154.767C119.781 154.767 116.204 153.274 113.531 150.774C115.406 149.42 117.906 148.586 120.718 148.586C124.919 148.586 128.566 150.496 130.197 153.274Z" fill="#EF4F63"/>
</g>
</svg>
