<svg width="16" height="10" viewBox="0 0 16 10" fill="none" xmlns="http://www.w3.org/2000/svg">
<path d="M8.7026 9.674C8.7126 9.662 8.7166 9.646 8.7266 9.634L15.7086 1.92C16.0986 1.486 16.0986 0.782 15.7086 0.348C15.7046 0.344 15.7006 0.342 15.6966 0.34C15.6098 0.234911 15.5012 0.150037 15.3782 0.0913105C15.2552 0.032584 15.1209 0.00142139 14.9846 0H1.0186C0.879825 0.00224243 0.743234 0.0349295 0.618477 0.0957527C0.49372 0.156576 0.383841 0.244052 0.2966 0.352L0.292601 0.348C0.103861 0.566371 0 0.845367 0 1.134C0 1.42263 0.103861 1.70163 0.292601 1.92L7.2906 9.674C7.37772 9.77612 7.48596 9.85813 7.60784 9.91436C7.72973 9.97059 7.86237 9.99971 7.9966 9.99971C8.13083 9.99971 8.26347 9.97059 8.38536 9.91436C8.50724 9.85813 8.61548 9.77612 8.7026 9.674Z" fill="#454545"/>
</svg>
