<svg width="34" height="32" viewBox="0 0 34 32" fill="none" xmlns="http://www.w3.org/2000/svg">
<path d="M17 4C14.4783 4 12.0132 4.70379 9.91649 6.02236C7.81976 7.34094 6.18556 9.21509 5.22054 11.4078C4.25552 13.6005 4.00303 16.0133 4.49499 18.3411C4.98695 20.6689 6.20127 22.8071 7.98439 24.4853C9.76751 26.1635 12.0393 27.3064 14.5126 27.7694C16.9859 28.2324 19.5495 27.9948 21.8792 27.0866C24.209 26.1783 26.2003 24.6402 27.6012 22.6668C29.0022 20.6935 29.75 18.3734 29.75 16C29.75 12.8174 28.4067 9.76515 26.0156 7.51472C23.6245 5.26428 20.3815 4 17 4ZM17 26C14.8986 26 12.8443 25.4135 11.0971 24.3147C9.3498 23.2159 7.98797 21.6541 7.18379 19.8268C6.3796 17.9996 6.16919 15.9889 6.57916 14.0491C6.98913 12.1093 8.00106 10.3275 9.487 8.92893C10.9729 7.53041 12.8661 6.578 14.9272 6.19215C16.9882 5.8063 19.1246 6.00433 21.066 6.7612C23.0075 7.51808 24.6669 8.79981 25.8344 10.4443C27.0019 12.0888 27.625 14.0222 27.625 16C27.625 18.6522 26.5056 21.1957 24.513 23.0711C22.5204 24.9464 19.8179 26 17 26Z" fill="#11174B"/>
<path d="M17.9137 9.09999C16.8935 8.8904 15.827 9.04165 14.9177 9.52488C14.0084 10.0081 13.32 10.7895 12.9837 11.72C12.9376 11.8446 12.9187 11.9767 12.9281 12.1084C12.9375 12.2401 12.9751 12.3686 13.0386 12.4863C13.1021 12.604 13.1902 12.7083 13.2977 12.7932C13.4051 12.878 13.5296 12.9416 13.6637 12.98C13.7977 13.0202 13.9387 13.035 14.0788 13.0235C14.2188 13.012 14.355 12.9745 14.4795 12.9131C14.6041 12.8517 14.7144 12.7677 14.8042 12.6659C14.8939 12.5641 14.9613 12.4465 15.0025 12.32C15.1759 11.8685 15.516 11.4908 15.9607 11.2558C16.4055 11.0208 16.9252 10.9442 17.425 11.04C17.9115 11.1786 18.3292 11.4768 18.6021 11.8805C18.875 12.2841 18.9851 12.7665 18.9125 13.24C18.8003 13.6875 18.5278 14.0849 18.1407 14.3654C17.7537 14.6459 17.2758 14.7923 16.7875 14.78C16.6376 14.7629 16.4857 14.7761 16.3416 14.8187C16.1976 14.8613 16.0649 14.9322 15.9523 15.0268C15.8397 15.1214 15.7498 15.2375 15.6887 15.3674C15.6275 15.4973 15.5964 15.6379 15.5975 15.78V18.9C15.5975 19.1652 15.7094 19.4196 15.9087 19.6071C16.1079 19.7946 16.3782 19.9 16.66 19.9C16.7985 19.9027 16.9362 19.8793 17.065 19.8312C17.1938 19.7832 17.3111 19.7114 17.41 19.6201C17.509 19.5289 17.5876 19.4199 17.6412 19.2997C17.6949 19.1795 17.7225 19.0504 17.7225 18.92V16.72C18.5382 16.5583 19.2854 16.1744 19.871 15.6161C20.4566 15.0578 20.8549 14.3497 21.0162 13.58C21.1776 12.6045 20.9501 11.6074 20.3773 10.7803C19.8046 9.95327 18.9271 9.35478 17.9137 9.09999ZM16.5962 20.78C16.3194 20.7944 16.0579 20.9043 15.8619 21.0888C15.6659 21.2734 15.549 21.5194 15.5337 21.78V22C15.5364 22.1252 15.5657 22.2486 15.6198 22.363C15.6739 22.4774 15.7517 22.5805 15.8487 22.6662C15.9457 22.7519 16.0599 22.8185 16.1846 22.8621C16.3094 22.9057 16.4421 22.9253 16.575 22.92C16.8589 22.9049 17.1262 22.7893 17.3232 22.5964C17.5203 22.4035 17.6326 22.1476 17.6375 21.88V21.72C17.6376 21.5931 17.6104 21.4675 17.5576 21.3508C17.5048 21.234 17.4274 21.1286 17.3301 21.0408C17.2328 20.9529 17.1176 20.8845 16.9915 20.8397C16.8654 20.7949 16.7309 20.7746 16.5962 20.78Z" fill="#11174B"/>
</svg>
