<svg width="27" height="31" viewBox="0 0 27 31" fill="none" xmlns="http://www.w3.org/2000/svg">
<path d="M13.5 18.0833C13.3875 18.0833 13.275 18.0833 13.1625 17.9542L0.7875 12.7875C0.3375 12.6583 0 12.1417 0 11.625C0 11.1083 0.3375 10.5917 0.7875 10.4625L13.1625 5.29583C13.3875 5.16667 13.725 5.16667 13.95 5.29583L26.325 10.4625C26.6625 10.5917 27 11.1083 27 11.625C27 12.1417 26.6625 12.6583 26.2125 12.7875L13.8375 17.9542C13.725 18.0833 13.6125 18.0833 13.5 18.0833ZM4.3875 11.625L13.5 15.3708L22.6125 11.625L13.5 7.87917L4.3875 11.625Z" fill="#11174B"/>
<path d="M21.375 25.8333H13.5C12.825 25.8333 12.375 25.3167 12.375 24.5417C12.375 23.7667 12.825 23.25 13.5 23.25H20.25C20.1375 19.8917 19.4625 17.05 18.3375 14.9833C18 14.3375 18.225 13.5625 18.675 13.175C19.2375 12.7875 19.9125 13.0458 20.25 13.5625C21.7125 16.275 22.5 20.0208 22.5 24.4125C22.5 25.3167 22.05 25.8333 21.375 25.8333Z" fill="#11174B"/>
<path d="M13.5 25.8333H5.625C4.95 25.8333 4.5 25.3167 4.5 24.5417C4.5 20.15 5.2875 16.4042 6.75 13.6917C7.0875 13.0458 7.7625 12.9167 8.325 13.3042C8.8875 13.6917 9 14.4667 8.6625 15.1125C7.5375 17.1792 6.8625 20.0208 6.75 23.3792H13.5C14.175 23.3792 14.625 23.8958 14.625 24.6708C14.625 25.4458 14.175 25.8333 13.5 25.8333ZM24.75 25.8333C24.075 25.8333 23.625 25.3167 23.625 24.5417V11.625C23.625 10.85 24.075 10.3333 24.75 10.3333C25.425 10.3333 25.875 10.85 25.875 11.625V24.5417C25.875 25.3167 25.425 25.8333 24.75 25.8333Z" fill="#11174B"/>
</svg>
