<svg width="45" height="46" viewBox="0 0 45 46" fill="none" xmlns="http://www.w3.org/2000/svg">
<path d="M6.50001 13.5H8.00001V16.5H1.00001C0.605013 16.5 0.245013 16.735 0.0850129 17.095C-0.0749871 17.46 -0.00498715 17.88 0.260013 18.175C2.76001 20.925 2.76001 25.075 0.260013 27.825C-0.00498715 28.12 -0.0749871 28.54 0.0850129 28.905C0.245013 29.265 0.605013 29.5 1.00001 29.5H38.5C42.085 29.5 45 26.585 45 23C45 19.415 42.085 16.5 38.5 16.5H18V13.5H44C44.395 13.5 44.755 13.265 44.915 12.905C45.075 12.54 45.005 12.12 44.74 11.825C42.24 9.075 42.24 4.925 44.74 2.175C45.005 1.88 45.075 1.46 44.915 1.095C44.8361 0.918144 44.7078 0.767876 44.5454 0.662306C44.3831 0.556736 44.1937 0.50037 44 0.5H6.50001C2.91501 0.5 1.28357e-05 3.415 1.28357e-05 7C1.28357e-05 10.585 2.91501 13.5 6.50001 13.5ZM38.5 18.5C40.98 18.5 43 20.52 43 23C43 25.48 40.98 27.5 38.5 27.5H2.95501C3.73175 26.1274 4.13998 24.5771 4.13998 23C4.13998 21.4229 3.73175 19.8726 2.95501 18.5H8.00001V22.5C8.00001 22.6857 8.05173 22.8678 8.14936 23.0257C8.247 23.1837 8.38669 23.3114 8.5528 23.3944C8.71891 23.4775 8.90486 23.5126 9.08982 23.496C9.27478 23.4793 9.45144 23.4114 9.60001 23.3L13 20.75L16.4 23.3C16.575 23.43 16.79 23.5 17 23.5C17.2652 23.5 17.5196 23.3946 17.7071 23.2071C17.8947 23.0196 18 22.7652 18 22.5V18.5H38.5ZM10 20.5V8.5H16V20.5L13.6 18.7C13.42 18.565 13.21 18.5 13 18.5C12.79 18.5 12.58 18.565 12.4 18.7L10 20.5ZM6.50001 2.5H42.045C41.2683 3.87259 40.86 5.42287 40.86 7C40.86 8.57713 41.2683 10.1274 42.045 11.5H18V7.5C18 6.95 17.55 6.5 17 6.5H9.00001C8.45001 6.5 8.00001 6.95 8.00001 7.5V11.5H6.50001C4.02001 11.5 2.00001 9.48 2.00001 7C2.00001 4.52 4.02001 2.5 6.50001 2.5ZM44.915 33.095C44.8361 32.9181 44.7078 32.7679 44.5454 32.6623C44.3831 32.5567 44.1937 32.5004 44 32.5H6.50001C2.91501 32.5 1.28357e-05 35.415 1.28357e-05 39C1.28357e-05 42.585 2.91501 45.5 6.50001 45.5H44C44.395 45.5 44.755 45.265 44.915 44.905C45.075 44.54 45.005 44.12 44.74 43.825C42.24 41.075 42.24 36.925 44.74 34.175C45.005 33.88 45.075 33.46 44.915 33.095ZM42.045 43.5H6.50001C4.02001 43.5 2.00001 41.48 2.00001 39C2.00001 36.52 4.02001 34.5 6.50001 34.5H42.045C41.2683 35.8726 40.86 37.4229 40.86 39C40.86 40.5771 41.2683 42.1274 42.045 43.5Z" fill="#11174B"/>
</svg>
