<svg width="27" height="27" viewBox="0 0 27 27" fill="none" xmlns="http://www.w3.org/2000/svg">
<path d="M8.39583 0.375H4.02083C3.0539 0.375 2.12657 0.759113 1.44284 1.44284C0.759113 2.12657 0.375 3.0539 0.375 4.02083C0.375 4.98777 0.759113 5.9151 1.44284 6.59883C2.12657 7.28255 3.0539 7.66667 4.02083 7.66667H8.39583C9.36277 7.66667 10.2901 7.28255 10.9738 6.59883C11.6576 5.9151 12.0417 4.98777 12.0417 4.02083C12.0417 3.0539 11.6576 2.12657 10.9738 1.44284C10.2901 0.759113 9.36277 0.375 8.39583 0.375ZM8.39583 6.20833H4.02083C3.44067 6.20833 2.88427 5.97787 2.47404 5.56763C2.0638 5.15739 1.83333 4.60099 1.83333 4.02083C1.83333 3.44067 2.0638 2.88427 2.47404 2.47404C2.88427 2.0638 3.44067 1.83333 4.02083 1.83333H8.39583C8.976 1.83333 9.53239 2.0638 9.94263 2.47404C10.3529 2.88427 10.5833 3.44067 10.5833 4.02083C10.5833 4.60099 10.3529 5.15739 9.94263 5.56763C9.53239 5.97787 8.976 6.20833 8.39583 6.20833ZM8.39583 10.5833H4.02083C3.0539 10.5833 2.12657 10.9674 1.44284 11.6512C0.759113 12.3349 0.375 13.2622 0.375 14.2292V22.9792C0.375 23.9461 0.759113 24.8734 1.44284 25.5572C2.12657 26.2409 3.0539 26.625 4.02083 26.625H8.39583C9.36277 26.625 10.2901 26.2409 10.9738 25.5572C11.6576 24.8734 12.0417 23.9461 12.0417 22.9792V14.2292C12.0417 13.2622 11.6576 12.3349 10.9738 11.6512C10.2901 10.9674 9.36277 10.5833 8.39583 10.5833ZM10.5833 22.9792C10.5833 23.5593 10.3529 24.1157 9.94263 24.526C9.53239 24.9362 8.976 25.1667 8.39583 25.1667H4.02083C3.44067 25.1667 2.88427 24.9362 2.47404 24.526C2.0638 24.1157 1.83333 23.5593 1.83333 22.9792V14.2292C1.83333 13.649 2.0638 13.0926 2.47404 12.6824C2.88427 12.2721 3.44067 12.0417 4.02083 12.0417H8.39583C8.976 12.0417 9.53239 12.2721 9.94263 12.6824C10.3529 13.0926 10.5833 13.649 10.5833 14.2292V22.9792ZM22.9792 19.3333H18.6042C17.6372 19.3333 16.7099 19.7174 16.0262 20.4012C15.3424 21.0849 14.9583 22.0122 14.9583 22.9792C14.9583 23.9461 15.3424 24.8734 16.0262 25.5572C16.7099 26.2409 17.6372 26.625 18.6042 26.625H22.9792C23.9461 26.625 24.8734 26.2409 25.5572 25.5572C26.2409 24.8734 26.625 23.9461 26.625 22.9792C26.625 22.0122 26.2409 21.0849 25.5572 20.4012C24.8734 19.7174 23.9461 19.3333 22.9792 19.3333ZM22.9792 25.1667H18.6042C18.024 25.1667 17.4676 24.9362 17.0574 24.526C16.6471 24.1157 16.4167 23.5593 16.4167 22.9792C16.4167 22.399 16.6471 21.8426 17.0574 21.4324C17.4676 21.0221 18.024 20.7917 18.6042 20.7917H22.9792C23.5593 20.7917 24.1157 21.0221 24.526 21.4324C24.9362 21.8426 25.1667 22.399 25.1667 22.9792C25.1667 23.5593 24.9362 24.1157 24.526 24.526C24.1157 24.9362 23.5593 25.1667 22.9792 25.1667ZM22.9792 0.375H18.6042C17.6372 0.375 16.7099 0.759113 16.0262 1.44284C15.3424 2.12657 14.9583 3.0539 14.9583 4.02083V12.7708C14.9583 13.7378 15.3424 14.6651 16.0262 15.3488C16.7099 16.0326 17.6372 16.4167 18.6042 16.4167H22.9792C23.9461 16.4167 24.8734 16.0326 25.5572 15.3488C26.2409 14.6651 26.625 13.7378 26.625 12.7708V4.02083C26.625 3.0539 26.2409 2.12657 25.5572 1.44284C24.8734 0.759113 23.9461 0.375 22.9792 0.375ZM25.1667 12.7708C25.1667 13.351 24.9362 13.9074 24.526 14.3176C24.1157 14.7279 23.5593 14.9583 22.9792 14.9583H18.6042C18.024 14.9583 17.4676 14.7279 17.0574 14.3176C16.6471 13.9074 16.4167 13.351 16.4167 12.7708V4.02083C16.4167 3.44067 16.6471 2.88427 17.0574 2.47404C17.4676 2.0638 18.024 1.83333 18.6042 1.83333H22.9792C23.5593 1.83333 24.1157 2.0638 24.526 2.47404C24.9362 2.88427 25.1667 3.44067 25.1667 4.02083V12.7708Z" fill="#11174B"/>
</svg>
