<svg width="48" height="48" viewBox="0 0 48 48" fill="none" xmlns="http://www.w3.org/2000/svg">
<path d="M24 47.9C10.8 47.9 0.0999756 37.2 0.0999756 24C0.0999756 10.8 10.8 0.100006 24 0.100006C37.2 0.100006 47.9 10.8 47.9 24C47.9 37.2 37.2 47.9 24 47.9ZM24 2.70001C12.3 2.70001 2.69998 12.3 2.69998 24C2.69998 35.7 12.3 45.3 24 45.3C35.7 45.3 45.3 35.7 45.3 24C45.3 12.3 35.7 2.70001 24 2.70001Z" fill="#454545"/>
<path d="M11.2999 22.6H36.6999V25.4H11.2999V22.6Z" fill="#454545"/>
<path d="M22.6 11.3H25.4V36.7H22.6V11.3Z" fill="#454545"/>
</svg>
