<svg width="31" height="27" viewBox="0 0 31 27" fill="none" xmlns="http://www.w3.org/2000/svg">
<path fill-rule="evenodd" clip-rule="evenodd" d="M15.5 13.5029C12.0807 13.5029 9.3 11.0815 9.3 8.10408C9.3 5.12663 12.0807 2.70525 15.5 2.70525C18.9193 2.70525 21.7 5.12663 21.7 8.10408C21.7 11.0815 18.9193 13.5029 15.5 13.5029ZM21.3249 14.4112C22.4101 13.6541 23.286 12.6942 23.8875 11.6024C24.489 10.5107 24.8009 9.315 24.8 8.10408C24.8011 6.73487 24.4036 5.38783 23.6445 4.18874C22.8853 2.98966 21.7895 1.97761 20.4593 1.24746C19.1291 0.517312 17.6081 0.092835 16.0383 0.0135785C14.4686 -0.065678 12.9014 0.202986 11.4832 0.794373C10.065 1.38576 8.84221 2.28061 7.92904 3.39526C7.01587 4.50992 6.44214 5.80793 6.26154 7.16809C6.08094 8.52824 6.29932 9.90602 6.89629 11.1727C7.49326 12.4394 8.44933 13.5536 9.67511 14.4112C4.00366 16.2671 0 20.8521 0 27H3.1C3.1 20.2515 8.66295 16.2023 15.5 16.2023C22.337 16.2023 27.9 20.2515 27.9 27H31C31 20.8521 26.9963 16.2671 21.3249 14.4112Z" fill="#11174B"/>
</svg>
