<svg width="27" height="27" viewBox="0 0 27 27" fill="none" xmlns="http://www.w3.org/2000/svg">
<path d="M24.9745 17.685C24.654 17.5258 24.2833 17.5004 23.944 17.6143C23.6048 17.7283 23.3246 17.9722 23.1651 18.2925C22.3104 20.0181 21.0099 21.4838 19.3981 22.5379C17.7863 23.5921 15.922 24.1962 13.9982 24.2878C12.0743 24.3793 10.161 23.955 8.45636 23.0588C6.75171 22.1625 5.31773 20.827 4.30294 19.1904C3.28816 17.5538 2.72948 15.6757 2.68478 13.7507C2.64007 11.8256 3.11097 9.92367 4.04869 8.24176C4.9864 6.55985 6.35684 5.15917 8.01805 4.1848C9.67926 3.21042 11.5708 2.69779 13.4968 2.70001C15.5103 2.69129 17.4855 3.25032 19.1956 4.31292C20.9057 5.37553 22.2815 6.89866 23.1651 8.7075C23.3263 9.02974 23.6089 9.27478 23.9507 9.38871C24.2926 9.50263 24.6657 9.47612 24.988 9.315C25.3103 9.15388 25.5554 8.87136 25.6694 8.52957C25.7833 8.18779 25.7568 7.81474 25.5957 7.49251C24.2408 4.76651 22.0041 2.57832 19.2488 1.28309C16.4935 -0.0121397 13.3812 -0.338379 10.417 0.357325C7.4529 1.05303 4.81094 2.72984 2.91997 5.11559C1.02899 7.50134 0 10.456 0 13.5C0 16.544 1.02899 19.4987 2.91997 21.8844C4.81094 24.2702 7.4529 25.947 10.417 26.6427C13.3812 27.3384 16.4935 27.0121 19.2488 25.7169C22.0041 24.4217 24.2408 22.2335 25.5957 19.5075C25.6761 19.3473 25.7239 19.1728 25.7362 18.994C25.7485 18.8152 25.725 18.6357 25.6672 18.4661C25.6094 18.2964 25.5184 18.14 25.3994 18.0059C25.2805 17.8718 25.1361 17.7627 24.9745 17.685ZM25.6497 12.15H12.7001L15.8059 9.0585C15.9318 8.93263 16.0316 8.7832 16.0998 8.61874C16.1679 8.45428 16.203 8.27801 16.203 8.1C16.203 7.92199 16.1679 7.74573 16.0998 7.58127C16.0316 7.41681 15.9318 7.26738 15.8059 7.14151C15.68 7.01563 15.5305 6.91579 15.366 6.84767C15.2015 6.77954 15.0252 6.74448 14.8471 6.74448C14.6691 6.74448 14.4928 6.77954 14.3283 6.84767C14.1638 6.91579 14.0143 7.01563 13.8884 7.14151L8.48715 12.5415C8.36422 12.6699 8.26786 12.8213 8.20359 12.987C8.06853 13.3157 8.06853 13.6843 8.20359 14.013C8.26786 14.1787 8.36422 14.3301 8.48715 14.4585L13.8884 19.8585C14.014 19.985 14.1633 20.0855 14.3278 20.154C14.4924 20.2225 14.6689 20.2578 14.8471 20.2578C15.0254 20.2578 15.2019 20.2225 15.3664 20.154C15.531 20.0855 15.6803 19.985 15.8059 19.8585C15.9324 19.733 16.0329 19.5837 16.1014 19.4192C16.17 19.2547 16.2053 19.0782 16.2053 18.9C16.2053 18.7218 16.17 18.5453 16.1014 18.3808C16.0329 18.2163 15.9324 18.067 15.8059 17.9415L12.7001 14.85H25.6497C26.0078 14.85 26.3513 14.7078 26.6045 14.4546C26.8577 14.2014 27 13.858 27 13.5C27 13.142 26.8577 12.7986 26.6045 12.5454C26.3513 12.2922 26.0078 12.15 25.6497 12.15Z" fill="#11174B"/>
</svg>
