<svg width="32" height="32" viewBox="0 0 32 32" fill="none" xmlns="http://www.w3.org/2000/svg">
<g clip-path="url(#clip0_39_157)">
<path d="M9.5 0C8.70435 0 7.94129 0.31607 7.37868 0.87868C6.81607 1.44129 6.5 2.20435 6.5 3C6.5 3.79565 6.81607 4.55871 7.37868 5.12132C7.94129 5.68393 8.70435 6 9.5 6C10.2956 6 11.0587 5.68393 11.6213 5.12132C12.1839 4.55871 12.5 3.79565 12.5 3C12.5 2.20435 12.1839 1.44129 11.6213 0.87868C11.0587 0.31607 10.2956 0 9.5 0ZM16 1C15.8674 1 15.7402 1.05268 15.6464 1.14645C15.5527 1.24021 15.5 1.36739 15.5 1.5V5.766L12.227 7H5C3.07 7 1.5 8.586 1.5 10.516V17.5C1.5 17.8978 1.65804 18.2794 1.93934 18.5607C2.22064 18.842 2.60218 19 3 19C3.39782 19 3.77936 18.842 4.06066 18.5607C4.34196 18.2794 4.5 17.8978 4.5 17.5V10.516C4.5 10.24 4.724 10 5 10H5.5V30.5C5.5 30.8978 5.65804 31.2794 5.93934 31.5607C6.22064 31.842 6.60218 32 7 32C7.39782 32 7.77936 31.842 8.06066 31.5607C8.34196 31.2794 8.5 30.8978 8.5 30.5V23H10.5V30.5C10.5 30.8978 10.658 31.2794 10.9393 31.5607C11.2206 31.842 11.6022 32 12 32C12.3978 32 12.7794 31.842 13.0607 31.5607C13.342 31.2794 13.5 30.8978 13.5 30.5V9.727L15.5 8.971V13.5C15.5 13.6326 15.5527 13.7598 15.6464 13.8536C15.7402 13.9473 15.8674 14 16 14H30C30.1326 14 30.2598 13.9473 30.3536 13.8536C30.4473 13.7598 30.5 13.6326 30.5 13.5V1.5C30.5 1.36739 30.4473 1.24021 30.3536 1.14645C30.2598 1.05268 30.1326 1 30 1H16ZM16.5 2H29.5V13H16.5V8.594L19.654 7.402C19.8381 7.33253 20.0067 7.22748 20.1503 7.09284C20.2938 6.9582 20.4094 6.79661 20.4904 6.6173C20.5715 6.43799 20.6164 6.24447 20.6227 6.04779C20.629 5.85111 20.5965 5.65511 20.527 5.471C20.4575 5.28689 20.3525 5.11826 20.2178 4.97475C20.0832 4.83123 19.9216 4.71564 19.7423 4.63458C19.3802 4.47086 18.9678 4.4577 18.596 4.598L16.5 5.387V2ZM22 3C21.8674 3 21.7402 3.05268 21.6464 3.14645C21.5527 3.24021 21.5 3.36739 21.5 3.5C21.5 3.63261 21.5527 3.75979 21.6464 3.85355C21.7402 3.94732 21.8674 4 22 4H28C28.1326 4 28.2598 3.94732 28.3536 3.85355C28.4473 3.75979 28.5 3.63261 28.5 3.5C28.5 3.36739 28.4473 3.24021 28.3536 3.14645C28.2598 3.05268 28.1326 3 28 3H22ZM22 5C21.8674 5 21.7402 5.05268 21.6464 5.14645C21.5527 5.24021 21.5 5.36739 21.5 5.5C21.5 5.63261 21.5527 5.75979 21.6464 5.85355C21.7402 5.94732 21.8674 6 22 6H25C25.1326 6 25.2598 5.94732 25.3536 5.85355C25.4473 5.75979 25.5 5.63261 25.5 5.5C25.5 5.36739 25.4473 5.24021 25.3536 5.14645C25.2598 5.05268 25.1326 5 25 5H22Z" fill="#11174B"/>
</g>
<defs>
<clipPath id="clip0_39_157">
<rect width="32" height="32" fill="white"/>
</clipPath>
</defs>
</svg>
