<svg width="30" height="27" viewBox="0 0 30 27" fill="none" xmlns="http://www.w3.org/2000/svg">
<path fill-rule="evenodd" clip-rule="evenodd" d="M29.375 22.5C29.375 23.2459 29.0458 23.9613 28.4597 24.4888C27.8737 25.0162 27.0788 25.3125 26.25 25.3125H3.75C3.33962 25.3125 2.93326 25.2398 2.55411 25.0984C2.17497 24.9571 1.83047 24.7499 1.54029 24.4888C0.95424 23.9613 0.625 23.2459 0.625 22.5V6.18752C0.625 5.59078 0.888392 5.01848 1.35723 4.59652C1.82607 4.17457 2.46196 3.93752 3.125 3.93752H15.7319L20.7938 2.28714C20.9477 2.23671 21.1175 2.24326 21.2661 2.30537C21.4146 2.36747 21.5298 2.48006 21.5862 2.61845L22.1194 3.93752H24.375C25.038 3.93752 25.6739 4.17457 26.1428 4.59652C26.6116 5.01848 26.875 5.59078 26.875 6.18752V7.31252C27.538 7.31252 28.1739 7.54957 28.6428 7.97152C29.1116 8.39348 29.375 8.96578 29.375 9.56252V22.5ZM3.125 5.06252C2.79348 5.06252 2.47554 5.18104 2.24112 5.39202C2.0067 5.603 1.875 5.88915 1.875 6.18752C1.875 6.48588 2.0067 6.77203 2.24112 6.98301C2.47554 7.19399 2.79348 7.31252 3.125 7.31252H5.39625C5.40438 7.3097 5.40938 7.30351 5.4175 7.3007L12.2812 5.06252H3.125ZM21.2987 5.16433L20.635 3.51958L19.3525 3.93752H19.3544L15.9081 5.06252H15.9019L9.0025 7.31252H22.1663L21.2987 5.16433ZM25.625 6.18752C25.625 5.88915 25.4933 5.603 25.2589 5.39202C25.0245 5.18104 24.7065 5.06252 24.375 5.06252H22.5731L23.4819 7.31252H25.625V6.18752ZM26.875 8.43752H3.125C2.6675 8.43752 2.24375 8.31883 1.875 8.12533V22.5C1.875 22.9476 2.07254 23.3768 2.42417 23.6933C2.77581 24.0097 3.25272 24.1875 3.75 24.1875H26.25C26.7473 24.1875 27.2242 24.0097 27.5758 23.6933C27.9275 23.3768 28.125 22.9476 28.125 22.5V18.5625H25.625C24.962 18.5625 24.3261 18.3255 23.8572 17.9035C23.3884 17.4815 23.125 16.9093 23.125 16.3125C23.125 15.7158 23.3884 15.1435 23.8572 14.7215C24.3261 14.2996 24.962 14.0625 25.625 14.0625H28.125V9.56252C28.125 9.26415 27.9933 8.978 27.7589 8.76702C27.5245 8.55604 27.2065 8.43752 26.875 8.43752ZM28.125 17.4375V15.1875H25.625C25.2935 15.1875 24.9755 15.306 24.7411 15.517C24.5067 15.728 24.375 16.0141 24.375 16.3125C24.375 16.6109 24.5067 16.897 24.7411 17.108C24.9755 17.319 25.2935 17.4375 25.625 17.4375H28.125ZM25.625 15.75H26.875V16.875H25.625V15.75Z" fill="#11174B"/>
</svg>
